<?xml version="1.0" encoding="utf-8"?>
<!-- Generator: Adobe Illustrator 18.1.0, SVG Export Plug-In . SVG Version: 6.00 Build 0)  -->
<svg version="1.1" id="Слой_1" xmlns="http://www.w3.org/2000/svg" xmlns:xlink="http://www.w3.org/1999/xlink" x="0px" y="0px"
	 viewBox="0 0 64 64" enable-background="new 0 0 64 64" xml:space="preserve">
<g>
	<g>
		<path fill="#3D5A98" d="M64,60.8518V2.9574C64,1.3239,62.6937,0,61.0827,0h-5.1939H8.2756h-5.194
			C1.4768,0,0.1768,1.3144,0.1705,2.9385v52.6399L0.1674,60.855c0.0031,1.6304,1.3094,2.9574,2.9142,2.9574h32.2086V38.1939h-8.3165
			v-8.8281h8.3165v-9.5832c0-5.7443,5.1255-9.6085,9.2651-9.6085h9.3024v8.035h-4.292c-2.118,0-4.9389,1.7473-4.9389,3.8927v7.2641
			h8.3849v8.8281h-8.3849v25.6185h11.2587h5.1939C62.6937,63.8124,64,62.4854,64,60.8518z"/>
	</g>
</g>
</svg>
