<?xml version="1.0" encoding="utf-8"?>
<!-- Generator: Adobe Illustrator 18.1.0, SVG Export Plug-In . SVG Version: 6.00 Build 0)  -->
<svg version="1.1" id="Слой_1" xmlns="http://www.w3.org/2000/svg" xmlns:xlink="http://www.w3.org/1999/xlink" x="0px" y="0px"
	 viewBox="0 0 64 64" enable-background="new 0 0 64 64" xml:space="preserve">
<g>
	<path d="M56.3943,0H7.6089C3.4105,0,0,3.3981,0,7.5934v48.8195C0,60.6051,3.4105,64,7.6089,64h48.7854
		C60.5895,64,64,60.6051,64,56.4129V7.5934C64,3.3981,60.5895,0,56.3943,0z M32.9001,6.8025c7.0204,0,12.712,5.6919,12.712,12.7127
		s-5.6916,12.719-12.712,12.719c-7.0236,0-12.712-5.6982-12.712-12.719S25.8765,6.8025,32.9001,6.8025z M44.1948,39.5555
		c-2.7019,1.737-6.4003,2.3951-8.8238,2.645l2.028,2.0218l7.4887,7.4954c1.1358,1.1327,1.1358,2.9836,0,4.1226l-0.3448,0.3385
		c-1.1358,1.1422-2.9834,1.1422-4.1161,0c-1.9109-1.9015-4.6539-4.651-7.4981-7.489l-7.4887,7.489
		c-1.139,1.1422-2.9803,1.1422-4.1256,0l-0.3417-0.3385c-1.1358-1.1358-1.1358-2.9868,0-4.1226
		c1.9078-1.911,4.6507-4.6541,7.4918-7.4922l2.0185-2.0186c-2.4171-0.2468-6.163-0.8954-8.887-2.6514
		c-3.1922-2.0439-4.6033-3.262-3.3568-5.7773c0.7213-1.4396,2.705-2.6356,5.3499-0.5569c3.5687,2.8159,9.3047,2.8159,9.3047,2.8159
		s5.7296,0,9.3015-2.8159c2.6449-2.0787,4.6349-0.8827,5.3499,0.5569C48.8076,36.2903,47.3839,37.5084,44.1948,39.5555z"/>
	<circle cx="32.9001" cy="19.5151" r="6.2551"/>
</g>
</svg>
