<?xml version="1.0" encoding="utf-8"?>
<!-- Generator: Adobe Illustrator 18.1.0, SVG Export Plug-In . SVG Version: 6.00 Build 0)  -->
<svg version="1.1" id="Слой_1" xmlns="http://www.w3.org/2000/svg" xmlns:xlink="http://www.w3.org/1999/xlink" x="0px" y="0px"
	 viewBox="0 0 64 64" enable-background="new 0 0 64 64" xml:space="preserve">
<path fill="#666666" d="M56.3943,0H7.6089C3.4105,0,0,3.3981,0,7.5934v48.8195C0,60.6051,3.4105,64,7.6089,64h48.7854
	C60.5895,64,64,60.6051,64,56.4129V7.5934C64,3.3981,60.5895,0,56.3943,0z M51.5506,22.986
	c0.019,0.3892,0.0316,0.7847,0.0316,1.1738c0,11.985-9.1212,25.7987-25.8006,25.7987c-5.119,0-9.8868-1.5029-13.9016-4.072
	c0.7119,0.0854,1.4269,0.1234,2.164,0.1234c4.2521,0,8.1562-1.4459,11.263-3.8821c-3.9705-0.0728-7.3178-2.6957-8.4726-6.2962
	c0.5568,0.1044,1.12,0.1614,1.7053,0.1614c0.8289,0,1.6293-0.1076,2.3918-0.3164c-4.1509-0.8353-7.2735-4.4959-7.2735-8.8938
	c0-0.038,0-0.0728,0-0.1107c1.2244,0.6739,2.6196,1.0884,4.1097,1.1295c-2.4393-1.6263-4.0338-4.401-4.0338-7.546
	c0-1.6611,0.4461-3.2209,1.2275-4.5592c4.4704,5.4863,11.1523,9.0963,18.6884,9.4728c-0.155-0.6613-0.2341-1.3542-0.2341-2.066
	c0-5.0022,4.0623-9.0647,9.0674-9.0647c2.6069,0,4.9608,1.0979,6.6186,2.8634c2.0691-0.4081,4.0117-1.1612,5.7581-2.1989
	c-0.6802,2.1135-2.1134,3.8916-3.9864,5.0117c1.8287-0.2151,3.5782-0.6992,5.2044-1.4206
	C54.863,20.1099,53.3223,21.7141,51.5506,22.986z"/>
</svg>
