<?xml version="1.0" encoding="utf-8"?>
<!-- Generator: Adobe Illustrator 18.1.0, SVG Export Plug-In . SVG Version: 6.00 Build 0)  -->
<svg version="1.1" id="Слой_1" xmlns="http://www.w3.org/2000/svg" xmlns:xlink="http://www.w3.org/1999/xlink" x="0px" y="0px"
	 viewBox="0 0 64 64" enable-background="new 0 0 64 64" xml:space="preserve">
<path fill-rule="evenodd" clip-rule="evenodd" fill="#666666" d="M8.25,0l52.5451,0c1.6569,0,3,1.3431,3,3v57.7951c0,1.6569-1.3431,3-3,3H3
	c-1.6569,0-3-1.3431-3-3V3.0833C0,1.6697,1.5864,0,3.0833,0H8.25z"/>
<path fill-rule="evenodd" clip-rule="evenodd" fill="#FFFFFF" d="M31.3623,44.6586h2.6095c0,0,0.788-0.0869,1.191-0.5205
	c0.3704-0.3985,0.3585-1.1463,0.3585-1.1463s-0.0511-3.5014,1.5739-4.0172c1.6024-0.5082,3.6595,3.3842,5.8399,4.8809
	c1.6488,1.1323,2.9018,0.8845,2.9018,0.8845l5.8305-0.0814c0,0,3.0498-0.1883,1.6036-2.5862
	c-0.1183-0.1959-0.8424-1.7738-4.3353-5.0159c-3.6561-3.3933-3.1661-2.8443,1.2379-8.7138c2.6819-3.5746,3.754-5.7568,3.4189-6.6914
	c-0.3192-0.8905-2.2918-0.6552-2.2918-0.6552l-6.5647,0.0407c0,0-0.487-0.0664-0.8478,0.1495
	c-0.3528,0.211-0.5792,0.7042-0.5792,0.7042s-1.0394,2.7659-2.4247,5.1186c-2.9231,4.9635-4.0921,5.2263-4.57,4.9176
	c-1.1118-0.7184-0.8339-2.8855-0.8339-4.4255c0-4.8105,0.7297-6.8161-1.4209-7.3352c-0.7135-0.1723-1.2391-0.2862-3.0641-0.3047
	c-2.3425-0.024-4.3247,0.0071-5.4473,0.557c-0.7469,0.3659-1.3231,1.1806-0.9719,1.2276c0.434,0.0578,1.4164,0.2651,1.9373,0.9739
	c0.6729,0.9155,0.6493,2.9707,0.6493,2.9707s0.3867,5.6626-0.9028,6.3659c-0.8847,0.4824-2.0986-0.5025-4.7049-5.0058
	c-1.335-2.3066-2.3433-4.8567-2.3433-4.8567s-0.1942-0.4764-0.5411-0.7315c-0.4206-0.309-1.0084-0.4069-1.0084-0.4069
	l-6.2383,0.0408c0,0-0.9363,0.0262-1.2803,0.4334c-0.3061,0.3625-0.0245,1.1115-0.0245,1.1115S15.0031,33.967,20.5332,39.725
	C25.6046,45.0051,31.3623,44.6586,31.3623,44.6586L31.3623,44.6586z"/>
</svg>
